<svg width="336" height="152" viewBox="0 0 336 152" fill="none" xmlns="http://www.w3.org/2000/svg">
    <path d="M202.399 61.4646C202.407 62.4295 202.212 63.3853 201.826 64.2701C201.458 65.12 200.929 65.891 200.269 66.5408C199.6 67.1924 198.817 67.7146 197.958 68.0811C197.064 68.4587 196.104 68.6533 195.134 68.6533C194.164 68.6533 193.204 68.4587 192.31 68.0811C190.59 67.3529 189.218 65.9888 188.48 64.2735C188.102 63.3903 187.908 62.4398 187.908 61.4793C187.908 60.5188 188.102 59.5683 188.48 58.6851C189.21 56.9588 190.584 55.5849 192.31 54.855C193.204 54.4774 194.164 54.2828 195.134 54.2828C196.104 54.2828 197.064 54.4774 197.958 54.855C198.816 55.2227 199.6 55.7455 200.269 56.3971C200.932 57.0516 201.461 57.8294 201.826 58.6868C202.207 59.565 202.402 60.5126 202.399 61.4698M200.542 115.252H189.683V72.9565H200.542V115.252Z" fill="black"/>
    <path d="M229.967 115.25C227.443 115.267 224.943 114.763 222.623 113.769C218.081 111.835 214.464 108.219 212.53 103.678C211.539 101.359 211.037 98.8605 211.054 96.3385V83.7787H205.8V73.0344H211.054V56.134H221.785V73.0344H238.137V83.777H221.785V96.3385C221.777 97.4309 221.993 98.5134 222.419 99.5195C222.824 100.485 223.411 101.363 224.149 102.105C224.899 102.851 225.784 103.448 226.756 103.864C227.766 104.3 228.855 104.521 229.955 104.514H238.13V115.255L229.967 115.25Z" fill="black"/>
    <path d="M265.393 115.25C262.869 115.267 260.368 114.763 258.049 113.769C253.507 111.835 249.89 108.219 247.956 103.678C246.962 101.358 246.458 98.8575 246.474 96.3333V83.7787H241.221V73.0344H246.474V56.134H257.216V73.0344H273.567V83.777H257.216V96.3385C257.208 97.4309 257.424 98.5134 257.849 99.5195C258.255 100.485 258.842 101.363 259.58 102.105C260.33 102.851 261.215 103.448 262.187 103.864C263.197 104.3 264.286 104.521 265.386 104.514H273.561V115.255L265.393 115.25Z" fill="black"/>
    <path d="M290.469 56.134H279.61V115.25H290.469V56.134Z" fill="black"/>
    <path d="M308.874 131.363V120.501L314.876 120.581C315.912 120.582 316.94 120.407 317.916 120.061C318.883 119.724 319.795 119.244 320.621 118.639C321.453 118.032 322.191 117.308 322.814 116.489C323.447 115.66 323.965 114.75 324.355 113.782C323.17 114.283 321.966 114.783 320.742 115.283C319.572 115.773 318.317 116.028 317.049 116.034C314.534 116.05 312.04 115.58 309.705 114.649C307.414 113.749 305.336 112.384 303.599 110.64C301.862 108.897 300.505 106.813 299.614 104.52C298.593 101.91 298.09 99.1277 298.132 96.3264V72.9565H308.874V96.335C308.846 97.6735 309.067 99.0056 309.525 100.264C309.913 101.309 310.512 102.263 311.283 103.068C312.01 103.811 312.894 104.384 313.869 104.745C314.887 105.12 315.964 105.308 317.049 105.3C318.143 105.303 319.222 105.038 320.19 104.528C321.172 104.019 322.05 103.33 322.778 102.496C323.514 101.648 324.099 100.68 324.509 99.6338C324.926 98.584 325.14 97.4647 325.141 96.335V72.9565H336V109.919C335.996 112.799 335.407 115.648 334.269 118.293C333.173 120.845 331.598 123.164 329.629 125.124C327.655 127.079 325.331 128.646 322.778 129.743C320.134 130.883 317.283 131.462 314.404 131.443L308.874 131.363Z" fill="black"/>
    <path d="M135.785 20.5955C104.425 19.4757 101.817 33.8701 101.602 36.5181C101.387 33.8787 98.7773 19.4844 67.4174 20.5955C35.604 21.7378 3.80791 8.99971 0 0C1.50066 6.61825 8.9486 26.2826 44.923 31.3865C88.3229 37.5409 88.0649 36.9334 101.576 54.1298V54.1852L101.597 54.161L101.616 54.1852V54.1298C115.125 36.9334 114.871 37.5409 158.267 31.3865C194.254 26.2826 201.7 6.61825 203.204 0C199.396 8.99971 167.598 21.7378 135.785 20.5955Z" fill="black"/>
    <path d="M101.6 109.442L86.3549 126.067L101.6 152L115.62 126.062L101.6 109.442Z" fill="black"/>
    <path d="M162.318 44.8999C159.912 42.4348 157.205 40.2832 154.26 38.4963L153.506 38.0515H153.495V49.9934L143.152 55.9765L143.532 56.2032C146.605 58.0647 149.14 60.6947 150.887 63.8341C152.634 66.9735 153.532 70.5138 153.494 74.1062C153.455 77.6985 152.481 81.2188 150.668 84.3201C148.854 87.4214 146.264 89.9966 143.152 91.7919V91.8023H143.141C140.003 93.6248 136.437 94.5805 132.808 94.5714C130.091 94.5714 127.401 94.0363 124.891 92.9965C122.381 91.9567 120.1 90.4327 118.179 88.5115C116.258 86.5902 114.735 84.3095 113.695 81.7994C112.656 79.2893 112.122 76.5991 112.122 73.8825H91.0801C91.0806 76.5992 90.5458 79.2895 89.5064 81.7995C88.467 84.3096 86.9432 86.5904 85.0222 88.5116C83.1011 90.4328 80.8204 91.9567 78.3103 92.9965C75.8001 94.0363 73.1098 94.5714 70.3928 94.5714C66.7637 94.5807 63.1975 93.625 60.0595 91.8023H60.0491V91.785C56.9369 89.9898 54.3463 87.4147 52.5326 84.3135C50.7189 81.2123 49.7448 77.6921 49.7062 74.0997C49.6676 70.5074 50.5658 66.967 52.3124 63.8275C54.0591 60.6881 56.5937 58.0579 59.6666 56.1963L60.0491 55.9696L49.7054 50.0003V38.0584H49.695L48.9386 38.5032C42.8676 42.2025 37.848 47.3982 34.3603 53.5928C30.8727 59.7875 29.0338 66.7737 29.0198 73.8825C29.0197 77.6252 29.5239 81.3509 30.5187 84.959C32.5215 92.1584 36.4366 98.6811 41.8483 103.835C47.2601 108.988 53.9666 112.58 61.2557 114.229C68.5448 115.878 76.1444 115.523 83.2478 113.201C90.3512 110.879 96.6932 106.677 101.6 101.041C105.236 105.218 109.672 108.622 114.648 111.053C119.624 113.483 125.037 114.89 130.566 115.19C136.095 115.49 141.629 114.677 146.838 112.799C152.047 110.92 156.826 108.016 160.892 104.256C164.958 100.497 168.227 95.9599 170.507 90.9137C172.786 85.8675 174.029 80.4151 174.162 74.8797C174.295 69.3442 173.315 63.8384 171.281 58.6886C169.246 53.5389 166.198 48.85 162.318 44.8999Z" fill="black"/>
</svg>
